<svg width="117" height="38" fill="none" xmlns="http://www.w3.org/2000/svg"><path fill-rule="evenodd" clip-rule="evenodd" d="M53.884 10.785a6.55 6.55 0 00-3.31.897v-.897h-3.402v18.043h3.402v-5.134a6.547 6.547 0 005.914.355 6.722 6.722 0 002.463-1.836 6.97 6.97 0 001.421-2.765 7.094 7.094 0 00.09-3.126 6.995 6.995 0 00-1.263-2.846 6.755 6.755 0 00-2.353-1.981 6.56 6.56 0 00-2.962-.71zm23.358 13.439h3.402v-7.166c0-1.372.655-2.064 2.328-2.406l1.786-.184v-3.315c-2.414 0-2.756.19-4.117.918v-.918h-3.399v13.07zm25.05-8.1h6.122a3.482 3.482 0 00-1.26-1.425 3.348 3.348 0 00-1.801-.528c-.636 0-1.26.183-1.801.528a3.482 3.482 0 00-1.26 1.425zm6.337 2.577h-6.549a3.531 3.531 0 001 1.614 3.383 3.383 0 001.674.837 3.33 3.33 0 001.851-.188 3.439 3.439 0 001.482-1.157h3.658a6.864 6.864 0 01-3.097 3.894 6.546 6.546 0 01-4.845.697 6.713 6.713 0 01-4.017-2.872 7.057 7.057 0 01-1.053-4.913 6.941 6.941 0 012.471-4.342 6.582 6.582 0 014.681-1.463 6.641 6.641 0 014.402 2.195 7.007 7.007 0 011.782 4.685 7.63 7.63 0 01-.071 1.013h-3.369zm4.595-12.15h3.396v17.673h-3.396V6.552zm-21.662 4.234a6.576 6.576 0 00-3.608 1.079 6.847 6.847 0 00-2.479 2.903 7.078 7.078 0 00-.573 3.82 6.999 6.999 0 001.512 3.537 6.704 6.704 0 003.123 2.147 6.534 6.534 0 003.756.085 6.682 6.682 0 003.212-2.005 6.981 6.981 0 001.662-3.466h-3.388c-.27.77-.794 1.42-1.48 1.835a3.341 3.341 0 01-2.278.442 3.396 3.396 0 01-2.029-1.153 3.574 3.574 0 01-.847-2.22 3.584 3.584 0 01.723-2.265 3.41 3.41 0 011.962-1.27 3.335 3.335 0 012.298.308 3.48 3.48 0 011.58 1.746h3.432a6.94 6.94 0 00-2.336-3.96 6.601 6.601 0 00-4.242-1.55v-.013zm-20.403.368h3.533v5.963c.015.183.024.37.024.56 0 .19 0 .376-.024.563v5.985h-3.533v-.441a6.562 6.562 0 01-3.327.806 6.576 6.576 0 01-3.281-.984 6.818 6.818 0 01-2.385-2.518 7.056 7.056 0 01-.87-3.399c0-1.191.3-2.362.87-3.399a6.817 6.817 0 012.385-2.518 6.575 6.575 0 013.28-.983 6.561 6.561 0 013.328.805v-.44zm-3.155 3.018c-.677 0-1.338.205-1.901.591a3.498 3.498 0 00-1.261 1.578 3.61 3.61 0 00-.196 2.032 3.55 3.55 0 00.935 1.802 3.392 3.392 0 001.751.964 3.332 3.332 0 001.977-.2 3.443 3.443 0 001.535-1.296 3.589 3.589 0 00.577-1.954 3.57 3.57 0 00-1.001-2.486 3.373 3.373 0 00-2.416-1.031zm-17.43 2.639v1.757a3.517 3.517 0 001.392 2.032c.688.48 1.524.686 2.35.578a3.392 3.392 0 002.135-1.164c.55-.642.854-1.469.854-2.325 0-.856-.303-1.683-.854-2.325a3.392 3.392 0 00-2.135-1.164 3.346 3.346 0 00-2.35.578 3.517 3.517 0 00-1.392 2.033z" fill="#fff"/><circle cx="19" cy="19" r="19" fill="#2962EF"/><path opacity=".6" fill-rule="evenodd" clip-rule="evenodd" d="M26.208 12.478v5.754l-7.862 4.044V7.862l7.862 4.616z" fill="#fff"/><path opacity=".8" fill-rule="evenodd" clip-rule="evenodd" d="M18.345 22.276v9.172l-6.552-4.646 6.552-4.526z" fill="#fff"/><path fill-rule="evenodd" clip-rule="evenodd" d="M18.345 7.862v15.352l-6.552 4.303v-14.74l6.552-4.915z" fill="#fff"/></svg>