<svg width="89" height="34" fill="none" xmlns="http://www.w3.org/2000/svg"><g clip-path="url(#clip0_1_5)" fill-rule="evenodd" clip-rule="evenodd"><path opacity=".5" d="M19.98 6.942v8.654L9.99 21.68V0l9.99 6.942z" fill="#2962EF"/><path opacity=".7" d="M9.99 21.679v12.32L0 27.76l9.99-6.08z" fill="#2962EF"/><path d="M9.99 0v21.679L0 27.756V6.94L9.99 0z" fill="#2962EF"/><path d="M34.471 10.573a5.792 5.792 0 00-2.856.75v-.75H28.68v15.082h2.935v-4.291a5.807 5.807 0 007.228-1.238 5.763 5.763 0 001.304-4.925 5.76 5.76 0 00-1.09-2.379 5.788 5.788 0 00-4.586-2.249zm20.155 11.234h2.936v-5.99c0-1.147.565-1.725 2.008-2.012l1.541-.153V10.88c-2.083 0-2.378.159-3.552.768v-.768h-2.933v10.927zm21.614-6.771h5.283a2.941 2.941 0 00-2.641-1.633 2.957 2.957 0 00-2.642 1.633zm5.468 2.154h-5.65a2.939 2.939 0 002.307 2.049 2.961 2.961 0 002.876-1.125h3.156a5.773 5.773 0 01-2.672 3.256 5.807 5.807 0 01-4.18.582 5.789 5.789 0 01-3.466-2.4 5.75 5.75 0 011.223-7.737 5.803 5.803 0 017.837.612 5.756 5.756 0 011.477 4.763h-2.908zm3.966-10.156h2.93v14.773h-2.93V7.034zm-18.692 3.54a5.807 5.807 0 00-3.113.9 5.776 5.776 0 00-2.139 2.428 5.751 5.751 0 00.81 6.15 5.811 5.811 0 008.708.19 5.763 5.763 0 001.433-2.898h-2.923a2.942 2.942 0 01-1.277 1.534 2.96 2.96 0 01-3.716-.595 2.934 2.934 0 011.585-4.81 2.96 2.96 0 011.984.257c.61.314 1.093.83 1.363 1.46h2.96a5.769 5.769 0 00-2.014-3.31 5.807 5.807 0 00-3.66-1.297v-.01zm-17.605.306h3.048v4.985c.013.153.021.31.021.468 0 .159 0 .315-.02.471v5.003h-3.049v-.369a5.81 5.81 0 01-5.702-.148 5.78 5.78 0 01-2.058-2.105 5.754 5.754 0 012.058-7.788 5.807 5.807 0 015.702-.148v-.369zm-2.722 2.523c-.584 0-1.155.172-1.64.495a2.942 2.942 0 00-1.257 3.018c.113.57.394 1.094.807 1.506a2.954 2.954 0 003.216.638 2.933 2.933 0 00.959-4.795 2.956 2.956 0 00-2.085-.862zm-15.04 2.206v1.469a2.94 2.94 0 001.2 1.699 2.96 2.96 0 003.872-.49 2.934 2.934 0 000-3.887 2.954 2.954 0 00-3.871-.49 2.94 2.94 0 00-1.2 1.699z" fill="#232427"/></g><defs><clipPath id="clip0_1_5"><path fill="#fff" d="M0 0h88.606v34H0z"/></clipPath></defs></svg>